# xmcd
#
# Track frame offsets:
#	150
#	13876
#	34531
#	53645
#	71721
#	87985
#	104642
#	123987
#	141651
#	154233
#	171674
#	190749
#	203951
#	218745
#	235502
#	262164
#
# Disc length: 3510 seconds
#
# Revision: 1
# Processed by: cddbd v1.5.1PL2 Copyright (c) Steve Scherf et al.
# Submitted via: audiograbber 1.83.01
#
DISCID=f20db410
DTITLE=Chartbuster - CB60323
DYEAR=2004
DGENRE=Country
TTITLE0=Travis Tritt - The Girl's Gone Wild
TTITLE1=Cross Canadian Ragweed - Sick And Tired
TTITLE2=Patty Loveless - I Wanna Believe
TTITLE3=Josh Gracin - I Want To Live
TTITLE4=Josh Turner - What It Ain't
TTITLE5=Lane Turner - Always Wanting More (Breathless)
TTITLE6=Jassi Alexander - Honeysuckle Sweet
TTITLE7=James Otto - Sunday Morning And Saturday Night
TTITLE8=Craig Morgan - Look At Us
TTITLE9=Vince Gill - In These Last Few Days
TTITLE10=Sheryl Crow - Light In Your Eyes
TTITLE11=Michelle Poe - Just One Of The Boys
TTITLE12=Pinmonkey - Let's Kill Saturday Night
TTITLE13=Rodney Atkins - Someone To Share It With
TTITLE14=Shannon Lawson - Everybody Wants (Something They Can't Have)
TTITLE15=None - None
EXTD=
EXTT0=
EXTT1=
EXTT2=
EXTT3=
EXTT4=
EXTT5=
EXTT6=
EXTT7=
EXTT8=
EXTT9=
EXTT10=
EXTT11=
EXTT12=
EXTT13=
EXTT14=
EXTT15=
PLAYORDER=
